<?xml version="1.0" encoding="UTF-8" standalone="no"?>
<!DOCTYPE svg PUBLIC "-//W3C//DTD SVG 1.1//EN" "http://www.w3.org/Graphics/SVG/1.1/DTD/svg11.dtd">
<svg width="100%" height="100%" viewBox="0 0 960 960" version="1.1" xmlns="http://www.w3.org/2000/svg" xmlns:xlink="http://www.w3.org/1999/xlink" xml:space="preserve" xmlns:serif="http://www.serif.com/" style="fill-rule:evenodd;clip-rule:evenodd;stroke-linejoin:round;stroke-miterlimit:2;">
    <g id="CDA-Logo" transform="matrix(1.15505,0,0,1.15505,-74.4245,-74.2847)">
        <g transform="matrix(0.991629,0,0,0.991629,4.01786,5.29396)">
            <rect x="340.702" y="288.717" width="278.596" height="16.752"/>
        </g>
        <g transform="matrix(0.991629,0,0,0.991629,4.01786,5.29396)">
            <rect x="340.702" y="575.168" width="278.596" height="16.752"/>
        </g>
        <g transform="matrix(0.991629,0,0,0.991629,4.01786,5.29396)">
            <rect x="340.702" y="861.626" width="278.596" height="16.752"/>
        </g>
        <g transform="matrix(0.991629,0,0,0.991629,4.01786,5.29396)">
            <path d="M477.513,495.025L452.12,495.025L452.12,385.765L477.513,385.765C515.726,385.765 525.22,413.466 525.22,440.395C525.22,467.324 515.726,495.025 477.513,495.025M545.735,440.395C545.735,397.566 524.193,368.839 476.996,368.839L432.114,368.839L432.114,511.951L476.996,511.951C524.193,511.951 545.735,483.231 545.735,440.395" style="fill-rule:nonzero;"/>
        </g>
        <g transform="matrix(0.991629,0,0,0.991629,4.01786,5.29396)">
            <path d="M483.364,228.064C515.681,228.064 539.275,210.876 541.328,180.35L521.323,180.35C520.041,196.519 507.731,210.621 483.874,210.621C449.766,210.621 441.554,182.148 441.554,153.931C441.554,125.72 449.766,97.247 483.874,97.247C507.731,97.247 520.041,111.364 521.323,127.518L541.328,127.518C539.275,97 515.681,79.819 483.364,79.819C441.554,79.819 421.039,109.565 421.039,153.931C421.039,198.31 441.554,228.064 483.364,228.064" style="fill-rule:nonzero;"/>
        </g>
        <g transform="matrix(0.991629,0,0,0.991629,4.01786,5.29396)">
            <path d="M479.643,675.557L505.807,749.166L453.485,749.166L479.643,675.557ZM511.449,765.073L523.243,798.409L544.53,798.409L490.672,655.296L469.385,655.296L415.527,798.409L436.042,798.409L447.843,765.073L511.449,765.073Z" style="fill-rule:nonzero;"/>
        </g>
    </g>
</svg>
