<?xml version="1.0" encoding="UTF-8" standalone="no"?><!DOCTYPE svg PUBLIC "-//W3C//DTD SVG 1.1//EN" "http://www.w3.org/Graphics/SVG/1.1/DTD/svg11.dtd"><svg width="100%" height="100%" viewBox="0 0 960 960" version="1.1" xmlns="http://www.w3.org/2000/svg" xmlns:xlink="http://www.w3.org/1999/xlink" xml:space="preserve" xmlns:serif="http://www.serif.com/" style="fill-rule:evenodd;clip-rule:evenodd;stroke-linejoin:round;stroke-miterlimit:2;"><g id="CDA-Logo"><rect x="320.45" y="262.521" width="319.099" height="19.187"/><rect x="320.45" y="590.617" width="319.099" height="19.187"/><rect x="320.45" y="918.72" width="319.099" height="19.187"/><path d="M477.151,498.822l-29.085,0l0,-125.144l29.085,0c43.768,0 54.642,31.728 54.642,62.572c0,30.844 -10.874,62.572 -54.642,62.572m78.14,-62.572c0,-49.055 -24.674,-81.959 -78.732,-81.959l-51.407,0l0,163.918l51.407,0c54.058,0 78.732,-32.895 78.732,-81.959" style="fill-rule:nonzero;"/><path d="M483.852,193.05c37.016,0 64.04,-19.687 66.391,-54.65l-22.913,0c-1.469,18.519 -15.568,34.671 -42.894,34.671c-39.066,0 -48.472,-32.612 -48.472,-64.931c0,-32.313 9.406,-64.925 48.472,-64.925c27.326,0 41.425,16.169 42.894,34.672l22.913,0c-2.351,-34.955 -29.375,-54.634 -66.391,-54.634c-47.888,0 -71.386,34.071 -71.386,84.887c0,50.831 23.498,84.91 71.386,84.91" style="fill-rule:nonzero;"/><path d="M479.59,705.6l29.968,84.311l-59.929,0l29.961,-84.311Zm36.43,102.53l13.509,38.183l24.382,0l-61.688,-163.919l-24.382,0l-61.688,163.919l23.498,0l13.516,-38.183l72.853,0Z" style="fill-rule:nonzero;"/></g></svg>