<svg version="1" xmlns="http://www.w3.org/2000/svg" width="933.333" height="933.333" viewBox="0 0 700.000000 700.000000"><path d="M337.9 80.6c-17.8 5.5-27.9 23.1-27.9 48.9.1 28.9 14.3 47.1 38.3 49.1 12.3 1 25.1-2.6 32.8-9.4 4.4-3.8 8.7-11.6 9.8-17.6l.8-4.6h-13.4l-1.3 4.2c-2.9 9.8-9.9 14.8-21.6 15.6-10.2.6-15.6-1-21.5-6.7-7.4-7.3-9.3-13.4-9.3-30.6-.1-16.1 1.4-22.7 6.7-29.6 11.9-15.6 41.1-11.5 45.9 6.4l1.2 4.7h6.3c6.2 0 6.3 0 6.3-2.8 0-5.2-3.1-12.1-7.7-17.2-7.7-8.6-16.9-12-31.8-11.9-4.9 0-11.1.7-13.6 1.5zM256 225.5v5.5h188v-11H256v5.5zM318 323v48.1l22.3-.3c20.4-.3 22.7-.5 28-2.6 19-7.7 27.8-25.7 25.5-52.7-1.5-18.8-10.7-31.9-26.5-37.8-5.2-1.9-8.2-2.2-27.5-2.5l-21.8-.3V323zm44.2-34.8c5.5 2.5 12.3 9.2 14.7 14.8 3.1 7.3 4.4 18.5 3.1 27.6-1.8 13.3-6.4 21.1-15.1 25.9-5.1 2.8-6.1 3-19.6 3.3l-14.3.4v-74.4l13.8.4c9.6.3 14.8.9 17.4 2zM256 420.5v5.5h188v-11H256v5.5zM341.9 471.7c-6.7 17.2-34.9 92.7-34.9 93.4 0 .6 2.8.9 6.6.7l6.6-.3 4-11.3 4-11.2 21.7.2 21.6.3 4 11.2 4 11.3h6.8c4.7 0 6.7-.4 6.7-1.3-.1-.6-8.1-22.3-17.8-48.2l-17.8-47-7.2-.3c-7.1-.3-7.2-.2-8.3 2.5zm16.9 36c4.5 12.7 8.2 23.6 8.2 24.2 0 .7-5.8 1.1-17.6 1.1-13.7 0-17.5-.3-17.2-1.3.3-.6 4.3-11.9 8.9-24.9 4.6-13 8.7-23.4 9-23 .3.4 4.3 11.1 8.7 23.9zM256 614.5v5.5h188v-11H256v5.5z"/></svg>