<svg id="logo" data-name="logo" xmlns="http://www.w3.org/2000/svg" viewBox="0 0 340.16 141.73">
    <defs><style>.cls-1{fill:#fff;}</style></defs>
    <title>CDA Centre for Documentary Architecture Logo</title>
    <rect class="cls-1" x="128.74" y="45.29" width="191.56" height="2.3"/><rect class="cls-1" x="128.74" y="84.64" width="191.56" height="2.3"/><rect class="cls-1" x="128.74" y="123.99" width="191.56" height="2.3"/><rect class="cls-1" x="17.5" y="84.64" width="72.98" height="2.3"/><path class="cls-1" d="M58.65,68.63h3.73L67.81,76h3.35l-5.89-7.78c2.89-.67,4.69-2.5,4.69-5.71C70,58.3,67.1,56.3,62,56.3H55.9V76h2.75Zm0-10H62c3.91,0,5.18,1.27,5.18,3.84S65.8,66.3,62,66.3H58.65Z"/><path class="cls-1" d="M41.91,76.31c6,0,8.88-4.09,8.88-10.18s-2.92-10.19-8.88-10.19S33,60,33,66.13,36,76.31,41.91,76.31Zm0-18c4.83,0,6.06,3.95,6.06,7.79s-1.23,7.78-6.06,7.78-6-3.94-6-7.78S37.05,58.34,41.91,58.34Z"/><polygon class="cls-1" points="20.25 67.08 28.53 67.08 28.53 64.72 20.25 64.72 20.25 58.62 29.87 58.62 29.87 56.3 17.5 56.3 17.5 75.95 20.25 75.95 20.25 67.08"/><polygon class="cls-1" points="261.85 75.95 261.85 58.66 267.95 58.66 267.95 56.3 253.01 56.3 253.01 58.66 259.1 58.66 259.1 75.95 261.85 75.95"/><polygon class="cls-1" points="228.98 58.62 228.98 56.3 215.88 56.3 215.88 75.95 228.98 75.95 228.98 73.63 218.63 73.63 218.63 67.04 227.22 67.04 227.22 64.72 218.63 64.72 218.63 58.62 228.98 58.62"/><polygon class="cls-1" points="237.44 56.3 234.09 56.3 234.09 75.95 236.7 75.95 236.7 59.89 245.96 75.95 249.31 75.95 249.31 56.3 246.7 56.3 246.7 72.36 237.44 56.3"/><path class="cls-1" d="M303.78,62.46c0-4.16-2.86-6.16-7.93-6.16h-6.13V76h2.75V68.63h3.73L301.63,76H305l-5.88-7.79C302,67.5,303.78,65.67,303.78,62.46Zm-8,3.84h-3.31V58.62h3.31c3.91,0,5.18,1.27,5.18,3.84S299.62,66.3,295.78,66.3Z"/><polygon class="cls-1" points="209.71 75.95 209.71 56.3 206.4 56.3 200.76 67.29 195.2 56.3 191.71 56.3 191.71 75.95 194.32 75.95 194.32 59.89 199.71 70.42 201.72 70.42 207.1 59.89 207.1 75.95 209.71 75.95"/><path class="cls-1" d="M170.68,56.3V69c0,5.11,2.89,7.3,7.61,7.3s7.61-2.19,7.61-7.3V56.3h-2.75V68.56c0,3.94-1.55,5.35-4.86,5.35s-4.86-1.41-4.86-5.35V56.3Z"/><path class="cls-1" d="M158.17,58.34c3.28,0,5,1.94,5.14,4.16h2.75c-.28-4.2-3.52-6.56-8-6.56-5.74,0-8.56,4.09-8.56,10.19s2.82,10.18,8.56,10.18c4.44,0,7.68-2.36,8-6.56h-2.75c-.17,2.22-1.86,4.16-5.14,4.16-4.68,0-5.81-3.91-5.81-7.78S153.49,58.34,158.17,58.34Z"/><polygon class="cls-1" points="315.51 75.95 315.51 68.1 322.66 56.3 319.7 56.3 314.17 65.7 308.67 56.3 305.61 56.3 312.76 68.1 312.76 75.95 315.51 75.95"/><path class="cls-1" d="M136.61,76.31c5.95,0,8.88-4.09,8.88-10.18s-2.93-10.19-8.88-10.19-8.88,4.09-8.88,10.19S130.66,76.31,136.61,76.31Zm0-18c4.83,0,6.06,3.95,6.06,7.79s-1.23,7.78-6.06,7.78-6.06-3.94-6.06-7.78S131.75,58.34,136.61,58.34Z"/><path class="cls-1" d="M272.39,71.38h8.73L282.74,76h2.93l-7.4-19.66h-2.92L268,76h2.82Zm4.36-12.3,3.6,10.11h-7.19Z"/><path class="cls-1" d="M109.2,56.3H103V76h6.17c6.48,0,9.44-3.94,9.44-9.82S115.68,56.3,109.2,56.3Zm.07,17.33h-3.49v-15h3.49c5.25,0,6.55,3.81,6.55,7.51S114.52,73.63,109.27,73.63Z"/><polygon class="cls-1" points="141.86 34.28 131.51 34.28 131.51 27.69 140.1 27.69 140.1 25.37 131.51 25.37 131.51 19.27 141.86 19.27 141.86 16.95 128.76 16.95 128.76 36.61 141.86 36.61 141.86 34.28"/><polygon class="cls-1" points="149.58 20.54 158.84 36.61 162.19 36.61 162.19 16.95 159.58 16.95 159.58 33.01 150.32 16.95 146.97 16.95 146.97 36.61 149.58 36.61 149.58 20.54"/><polygon class="cls-1" points="217.29 34.28 206.93 34.28 206.93 27.69 215.53 27.69 215.53 25.37 206.93 25.37 206.93 19.27 217.29 19.27 217.29 16.95 204.19 16.95 204.19 36.61 217.29 36.61 217.29 34.28"/><polygon class="cls-1" points="171.99 36.61 174.73 36.61 174.73 19.31 180.83 19.31 180.83 16.95 165.89 16.95 165.89 19.31 171.99 19.31 171.99 36.61"/><path class="cls-1" d="M187.27,29.28H191l5.42,7.33h3.35l-5.88-7.79c2.89-.67,4.68-2.5,4.68-5.71,0-4.15-2.85-6.16-7.92-6.16h-6.13V36.61h2.74Zm0-10h3.32c3.91,0,5.17,1.27,5.17,3.84S194.43,27,190.59,27h-3.32Z"/><path class="cls-1" d="M110.07,37c4.44,0,7.68-2.36,8-6.55h-2.74c-.18,2.22-1.87,4.15-5.15,4.15-4.68,0-5.81-3.91-5.81-7.78S105.46,19,110.14,19c3.28,0,5,1.94,5.15,4.16H118c-.28-4.19-3.52-6.55-8-6.55-5.74,0-8.56,4.08-8.56,10.18S104.33,37,110.07,37Z"/><path class="cls-1" d="M142.81,101.81c0-4.16-2.85-6.17-7.92-6.17h-6.13V115.3h2.75V108h3.73l5.43,7.32H144l-5.88-7.78C141,106.85,142.81,105,142.81,101.81Zm-8,3.84h-3.31V98h3.31c3.91,0,5.18,1.27,5.18,3.84S138.66,105.65,134.82,105.65Z"/><path class="cls-1" d="M155.64,97.69c3.27,0,5,1.94,5.14,4.16h2.75c-.28-4.2-3.52-6.56-8-6.56-5.75,0-8.56,4.09-8.56,10.18s2.81,10.19,8.56,10.19c4.44,0,7.68-2.37,8-6.56h-2.75c-.17,2.22-1.87,4.16-5.14,4.16-4.69,0-5.82-3.91-5.82-7.79S151,97.69,155.64,97.69Z"/><polygon class="cls-1" points="226.91 97.97 226.91 95.64 213.8 95.64 213.8 115.3 226.91 115.3 226.91 112.98 216.55 112.98 216.55 106.39 225.15 106.39 225.15 104.06 216.55 104.06 216.55 97.97 226.91 97.97"/><polygon class="cls-1" points="168.5 95.64 168.5 115.3 171.25 115.3 171.25 106.42 180.9 106.42 180.9 115.3 183.65 115.3 183.65 95.64 180.9 95.64 180.9 104.06 171.25 104.06 171.25 95.64 168.5 95.64"/><path class="cls-1" d="M239.06,97.69c3.28,0,5,1.94,5.15,4.16H247c-.28-4.2-3.52-6.56-8-6.56-5.74,0-8.56,4.09-8.56,10.18s2.82,10.19,8.56,10.19c4.44,0,7.68-2.37,8-6.56h-2.74c-.18,2.22-1.87,4.16-5.15,4.16-4.68,0-5.81-3.91-5.81-7.79S234.38,97.69,239.06,97.69Z"/><polygon class="cls-1" points="320.3 97.97 320.3 95.64 307.2 95.64 307.2 115.3 320.3 115.3 320.3 112.98 309.94 112.98 309.94 106.39 318.54 106.39 318.54 104.06 309.94 104.06 309.94 97.97 320.3 97.97"/><rect class="cls-1" x="189.35" y="95.64" width="2.75" height="19.66"/><path class="cls-1" d="M301.59,101.81c0-4.16-2.85-6.17-7.92-6.17h-6.13V115.3h2.75V108H294l5.43,7.32h3.34l-5.88-7.78C299.8,106.85,301.59,105,301.59,101.81Zm-8,3.84h-3.31V98h3.31c3.91,0,5.18,1.27,5.18,3.84S297.44,105.65,293.6,105.65Z"/><polygon class="cls-1" points="204.01 115.3 204.01 98 210.1 98 210.1 95.64 195.17 95.64 195.17 98 201.26 98 201.26 115.3 204.01 115.3"/><path class="cls-1" d="M266.51,95.64v12.72c0,5.11,2.88,7.3,7.61,7.3s7.6-2.19,7.6-7.3V95.64H279V107.9c0,3.95-1.55,5.36-4.86,5.36s-4.87-1.41-4.87-5.36V95.64Z"/><polygon class="cls-1" points="257.42 115.3 257.42 98 263.51 98 263.51 95.64 248.57 95.64 248.57 98 254.67 98 254.67 115.3 257.42 115.3"/><path class="cls-1" d="M108.15,95.64l-7.4,19.66h2.82l1.62-4.58h8.74l1.62,4.58h2.92l-7.39-19.66ZM106,108.54l3.59-10.11,3.6,10.11Z"/>
</svg>